<?xml version="1.0" encoding="utf-8"?>
<!-- Generator: Adobe Illustrator 19.0.0, SVG Export Plug-In . SVG Version: 6.00 Build 0)  -->
<svg version="1.1" id="Layer_1" xmlns="http://www.w3.org/2000/svg" xmlns:xlink="http://www.w3.org/1999/xlink" x="0px" y="0px"
	 viewBox="0 0 380.6 359.4" style="enable-background:new 0 0 380.6 359.4;" xml:space="preserve">
<style type="text/css">
	.st0{fill:#FCEE22;}
	.st1{fill:#FFFFFF;}
</style>
<rect id="XMLID_1_" x="437.2" y="-74" class="st0" width="612" height="792"/>
<g id="XMLID_6_">
	<g id="XMLID_2_">
		<path id="XMLID_123_" d="M494.6,41.8h-16.9V33h44v8.8h-17.1v57.3h-10V41.8z"/>
		<path id="XMLID_125_" d="M531.3,33h10.1v27h23.3V33h10.1v66.1h-10.1V68.4h-23.3v30.7h-10.1V33z"/>
		<path id="XMLID_127_" d="M588.8,33h29v8.8h-19v18.3H614v9h-15.3v21.1h22v8.9h-32V33z"/>
		<path id="XMLID_129_" d="M662.7,56.6l0.3,6.9v35.6h-10.1V31.4l40,44.5l-0.3-7.2V33h10.1v67.8L662.7,56.6z"/>
		<path id="XMLID_131_" d="M716.8,33h29v8.8h-19v18.3h15.3v9h-15.3v21.1h22v8.9h-32V33z"/>
		<path id="XMLID_133_" d="M773.1,64.7L754,33h12.1l12.5,23.1L791.5,33h11.9l-19.2,31.5l21.1,34.6h-12l-14.6-26.2l-14.3,26.2h-11.6
			L773.1,64.7z"/>
		<path id="XMLID_135_" d="M825.8,41.8h-16.9V33h44v8.8h-17.1v57.3h-10V41.8z"/>
	</g>
	<g id="XMLID_5_">
		<path id="XMLID_109_" d="M494.6,284h-16.9v-8.8h44v8.8h-17.1v57.3h-10V284z"/>
		<path id="XMLID_111_" d="M531.3,275.1h10.1v27h23.3v-27h10.1v66.2h-10.1v-30.7h-23.3v30.7h-10.1V275.1z"/>
		<path id="XMLID_113_" d="M589.9,275.1H600v66.2h-10.1V275.1z"/>
		<path id="XMLID_115_" d="M625,298.7l0.3,6.9v35.6h-10.1v-67.8l40,44.5l-0.3-7.2v-35.7h10.1v67.8L625,298.7z"/>
		<path id="XMLID_117_" d="M692.4,337.7c-5.2-3-9.2-7.1-12.1-12.4c-2.9-5.2-4.4-11.1-4.4-17.7c0-6.4,1.5-12.1,4.4-17.2
			c2.9-5.1,7-9.1,12.2-12c5.2-2.9,11.1-4.3,17.6-4.3c3.5,0,6.7,0.3,9.6,0.9c2.8,0.6,5.2,1.3,7,2.2c1.8,0.8,3,1.5,3.7,2.1l-4,8.5
			c-3.7-3-9.2-4.5-16.5-4.5c-4.8,0-9,1.1-12.5,3.1c-3.5,2.1-6.2,5-8.1,8.6c-1.9,3.6-2.8,7.6-2.8,12.1c0,5,1,9.5,3,13.5
			c2,4,4.8,7,8.4,9.2c3.6,2.2,7.6,3.3,12.1,3.3c2.8,0,5.5-0.3,8.1-1c2.6-0.7,4.8-1.8,6.6-3.3V316h-13.6v-9.3h23.6v25.9
			c-2.2,2.7-5.4,5-9.8,6.8c-4.4,1.8-9.4,2.7-15.1,2.7C703.4,342.2,697.6,340.7,692.4,337.7z"/>
		<path id="XMLID_119_" d="M769.3,275.1h10.1v66.2h-10.1V275.1z"/>
		<path id="XMLID_121_" d="M799.1,340.3c-3.5-1.3-6.1-2.7-7.6-4.2l4.8-8.5c1.3,1.1,3.2,2.3,5.9,3.6c2.7,1.2,5.2,1.8,7.7,1.8
			c3.2,0,5.8-0.8,7.8-2.3c2-1.5,3-3.6,3-6.2c0-2-0.5-3.8-1.6-5.3c-1.1-1.5-2.4-2.7-4-3.7c-1.6-1-3.8-2.2-6.7-3.6
			c-3.4-1.7-5.8-2.9-7-3.8c-5.8-3.9-8.7-9.3-8.7-16.2c0-5.7,1.9-10.1,5.7-13.1c3.8-3,8.5-4.5,14.3-4.5c6.2,0,11.4,1.8,15.8,5.3
			l-4.8,8.2c-1.1-1.2-2.7-2.2-4.8-3.1c-2.1-0.9-4.3-1.3-6.6-1.3c-3,0-5.4,0.7-7.1,2s-2.6,3.3-2.6,6c0,1.9,0.5,3.5,1.6,5
			c1.1,1.5,2.4,2.7,4.1,3.8c1.6,1.1,3.9,2.4,6.7,4c2.7,1.5,4.8,2.7,6.2,3.6c1.4,0.9,2.8,1.9,4,3.1c1.7,1.6,3.1,3.4,4.2,5.6
			s1.6,4.5,1.6,7.1c0,4-0.9,7.4-2.7,10.3c-1.8,2.8-4.4,5-7.6,6.4c-3.2,1.4-6.9,2.2-10.9,2.2C806.2,342.2,802.6,341.6,799.1,340.3z"
			/>
	</g>
	<g id="XMLID_4_">
		<path id="XMLID_101_" class="st1" d="M492.5,104.3h41.9c23.6,0,39.3,4,47,11.9c7.8,7.9,11.6,17.5,11.6,28.7
			c0,7.5-1.6,14.5-4.9,21.2c-3.3,6.6-8.5,11.6-15.7,14.9c10.5,1.6,18.2,6,23.3,13.1c5.1,7.1,7.6,15.3,7.6,24.8
			c0,9.6-1.5,17.9-4.5,25.1c-3,7.2-9.2,13.1-18.6,17.9c-9.4,4.8-23,7.2-40.8,7.2h-47V104.3z M538.4,174.2c10.6,0,18.1-2.6,22.6-7.7
			s6.7-11.7,6.7-19.6c0-14.2-10.2-21.3-30.5-21.3h-20.2v48.6H538.4z M542.9,247.9c13.6,0,22.7-2.7,27.4-8.2
			c4.7-5.4,7.1-12.4,7.1-20.7c0-7.9-2.7-14-8.1-18.4c-5.4-4.3-13.5-6.5-24.4-6.5h-27.8v53.8H542.9z"/>
		<path id="XMLID_105_" class="st1" d="M635.6,104.3h25.1v164.6h-25.1V104.3z"/>
		<path id="XMLID_107_" class="st1" d="M731.7,260c-12.8-7.5-22.9-17.7-30.1-30.8c-7.2-13.1-10.9-27.7-10.9-44
			c0-15.8,3.7-30.1,11-42.8c7.3-12.7,17.5-22.6,30.5-29.8s27.6-10.8,43.9-10.8c8.8,0,16.8,0.8,23.9,2.4c7.1,1.6,12.9,3.4,17.4,5.4
			s7.5,3.8,9.2,5.3l-9.9,21.1c-9.3-7.5-22.9-11.2-41-11.2c-11.9,0-22.3,2.6-31.1,7.8c-8.8,5.2-15.5,12.3-20.2,21.3
			c-4.6,9-6.9,19-6.9,30c0,12.5,2.5,23.7,7.5,33.6c5,9.9,11.9,17.5,20.8,23c8.9,5.5,18.9,8.2,30.1,8.2c7,0,13.7-0.9,20.2-2.6
			c6.4-1.7,11.9-4.4,16.4-8.2V206h-33.8v-23.1h58.7v64.5c-5.4,6.7-13.5,12.4-24.3,16.9c-10.8,4.6-23.3,6.8-37.5,6.8
			C759.1,271.2,744.5,267.4,731.7,260z"/>
	</g>
	<g id="XMLID_3_">
		<path id="XMLID_88_" d="M495,369.6c-1.9-1.2-3.3-2.7-4.3-4.6c-1-1.9-1.5-4.1-1.5-6.4c0-2.5,0.5-4.7,1.6-6.6
			c1.1-1.9,2.6-3.5,4.5-4.6c1.9-1.1,4.2-1.6,6.6-1.6c1.1,0,2.1,0.1,3.1,0.4s1.8,0.5,2.4,0.8c0.6,0.3,1.1,0.6,1.3,0.8l-1.7,3.4
			c-1.4-1.2-3.2-1.8-5.4-1.8c-1.6,0-3,0.4-4.3,1.2c-1.3,0.8-2.3,1.9-3,3.3c-0.7,1.4-1.1,3.1-1.1,5c0,1.7,0.3,3.3,1,4.7
			c0.6,1.4,1.6,2.5,2.8,3.3c1.2,0.8,2.7,1.2,4.5,1.2c2,0,3.9-0.6,5.8-1.7l1.1,3.2c-0.5,0.5-1.4,0.9-2.7,1.3c-1.3,0.4-2.7,0.6-4,0.6
			C499.2,371.4,496.9,370.8,495,369.6z"/>
		<path id="XMLID_90_" d="M516.7,369.9c-1.9-1.1-3.4-2.6-4.6-4.5c-1.1-1.9-1.7-4.2-1.7-6.8c0-2.6,0.6-4.9,1.7-6.8
			c1.1-1.9,2.7-3.4,4.6-4.5c1.9-1,4-1.6,6.3-1.6c2.3,0,4.4,0.5,6.3,1.6c1.9,1,3.4,2.5,4.6,4.5c1.1,1.9,1.7,4.2,1.7,6.8
			c0,2.6-0.6,4.9-1.7,6.8c-1.1,2-2.7,3.5-4.6,4.5c-1.9,1.1-4,1.6-6.3,1.6C520.7,371.5,518.6,370.9,516.7,369.9z M527.2,366.9
			c1.3-0.7,2.3-1.8,3.1-3.2c0.8-1.4,1.1-3.1,1.1-5.1c0-2-0.4-3.7-1.1-5.1c-0.8-1.4-1.8-2.5-3.1-3.2c-1.3-0.7-2.7-1.1-4.3-1.1
			c-1.6,0-3,0.4-4.3,1.1s-2.3,1.8-3.1,3.2c-0.7,1.4-1.1,3.1-1.1,5.1c0,2,0.4,3.7,1.2,5.1s1.8,2.5,3.1,3.2c1.3,0.7,2.7,1.1,4.2,1.1
			C524.5,368,525.9,367.7,527.2,366.9z"/>
		<path id="XMLID_93_" d="M546.1,359.5l-1.6-3.5l-0.7,3.5l-2.3,11.6h-3.8l5.3-25.7l7.2,14.3l2,4.4l2-4.4l7-14.3l5.5,25.7H563
			l-2.5-11.6l-0.7-3.5l-1.4,3.5l-6.2,11.9L546.1,359.5z"/>
		<path id="XMLID_95_" d="M570.6,346.1h3.8v25h-3.8V346.1z"/>
		<path id="XMLID_97_" d="M583.9,355l0.1,2.6v13.5h-3.8v-25.6l15.1,16.8l-0.1-2.7v-13.5h3.8v25.6L583.9,355z"/>
		<path id="XMLID_99_" d="M609.3,369.8c-1.9-1.1-3.5-2.7-4.6-4.7c-1.1-2-1.6-4.2-1.6-6.7c0-2.4,0.6-4.6,1.7-6.5
			c1.1-1.9,2.7-3.4,4.6-4.5c2-1.1,4.2-1.6,6.7-1.6c1.3,0,2.5,0.1,3.6,0.4c1.1,0.2,2,0.5,2.6,0.8c0.7,0.3,1.1,0.6,1.4,0.8l-1.5,3.2
			c-1.4-1.1-3.5-1.7-6.2-1.7c-1.8,0-3.4,0.4-4.7,1.2c-1.3,0.8-2.4,1.9-3.1,3.2c-0.7,1.4-1.1,2.9-1.1,4.6c0,1.9,0.4,3.6,1.1,5.1
			c0.8,1.5,1.8,2.7,3.2,3.5c1.3,0.8,2.9,1.2,4.6,1.2c1.1,0,2.1-0.1,3.1-0.4c1-0.3,1.8-0.7,2.5-1.2v-4.8h-5.1v-3.5h8.9v9.8
			c-0.8,1-2,1.9-3.7,2.6c-1.6,0.7-3.5,1-5.7,1C613.5,371.5,611.3,370.9,609.3,369.8z"/>
	</g>
</g>
<g id="XMLID_8_">
	<g id="XMLID_12_">
		<path id="XMLID_74_" d="M19.6,20.7H2.7v-8.8h44v8.8H29.6v57.3h-10V20.7z"/>
		<path id="XMLID_76_" d="M56.3,11.9h10.1v27h23.3v-27h10.1v66.1H89.7V47.4H66.4v30.7H56.3V11.9z"/>
		<path id="XMLID_78_" d="M113.8,11.9h29v8.8h-19V39H139v9h-15.3v21.1h22v8.9h-32V11.9z"/>
		<path id="XMLID_80_" d="M187.7,35.5l0.3,6.9v35.6h-10.1V10.3l40,44.5l-0.3-7.2V11.9h10.1v67.8L187.7,35.5z"/>
		<path id="XMLID_82_" d="M241.8,11.9h29v8.8h-19V39h15.3v9h-15.3v21.1h22v8.9h-32V11.9z"/>
		<path id="XMLID_84_" d="M298.1,43.6L279,11.9h12.1l12.5,23.1l12.9-23.1h11.9l-19.2,31.5l21.1,34.6h-12l-14.6-26.2l-14.3,26.2
			h-11.6L298.1,43.6z"/>
		<path id="XMLID_86_" d="M350.8,20.7h-16.9v-8.8h44v8.8h-17.1v57.3h-10V20.7z"/>
	</g>
	<g id="XMLID_11_">
		<path id="XMLID_60_" d="M19.6,262.9H2.7v-8.8h44v8.8H29.6v57.3h-10V262.9z"/>
		<path id="XMLID_62_" d="M56.3,254.1h10.1v27h23.3v-27h10.1v66.1H89.7v-30.7H66.4v30.7H56.3V254.1z"/>
		<path id="XMLID_64_" d="M114.9,254.1H125v66.1h-10.1V254.1z"/>
		<path id="XMLID_66_" d="M150,277.7l0.3,6.9v35.6h-10.1v-67.8l40,44.5l-0.3-7.2v-35.7h10.1v67.8L150,277.7z"/>
		<path id="XMLID_68_" d="M217.4,316.6c-5.2-3-9.2-7.1-12.1-12.4c-2.9-5.2-4.4-11.1-4.4-17.7c0-6.4,1.5-12.1,4.4-17.2
			c2.9-5.1,7-9.1,12.2-12c5.2-2.9,11.1-4.3,17.6-4.3c3.5,0,6.7,0.3,9.6,0.9c2.8,0.6,5.2,1.3,7,2.2c1.8,0.8,3,1.5,3.7,2.1l-4,8.5
			c-3.7-3-9.2-4.5-16.5-4.5c-4.8,0-9,1.1-12.5,3.1c-3.5,2.1-6.2,5-8.1,8.6c-1.9,3.6-2.8,7.6-2.8,12.1c0,5,1,9.5,3,13.5
			c2,4,4.8,7,8.4,9.2c3.6,2.2,7.6,3.3,12.1,3.3c2.8,0,5.5-0.3,8.1-1c2.6-0.7,4.8-1.8,6.6-3.3v-12.8h-13.6v-9.3h23.6v25.9
			c-2.2,2.7-5.4,5-9.8,6.8c-4.4,1.8-9.4,2.7-15.1,2.7C228.4,321.1,222.6,319.6,217.4,316.6z"/>
		<path id="XMLID_70_" d="M294.3,254.1h10.1v66.1h-10.1V254.1z"/>
		<path id="XMLID_72_" d="M324.1,319.2c-3.5-1.3-6.1-2.7-7.6-4.2l4.8-8.5c1.3,1.1,3.2,2.3,5.9,3.6c2.7,1.2,5.2,1.8,7.7,1.8
			c3.2,0,5.8-0.7,7.8-2.3c2-1.5,3-3.6,3-6.2c0-2-0.5-3.8-1.6-5.3c-1.1-1.5-2.4-2.7-4-3.7c-1.6-1-3.8-2.2-6.7-3.6
			c-3.4-1.7-5.8-2.9-7-3.8c-5.8-3.9-8.7-9.3-8.7-16.2c0-5.7,1.9-10.1,5.7-13.1c3.8-3,8.5-4.5,14.3-4.5c6.2,0,11.4,1.8,15.8,5.3
			l-4.8,8.2c-1.1-1.2-2.7-2.2-4.8-3.1c-2.1-0.9-4.3-1.3-6.6-1.3c-3,0-5.4,0.7-7.1,2s-2.6,3.3-2.6,6c0,1.9,0.5,3.5,1.6,5
			c1.1,1.5,2.4,2.7,4.1,3.8c1.6,1.1,3.9,2.4,6.7,4c2.7,1.5,4.8,2.7,6.2,3.6c1.4,0.9,2.8,1.9,4,3.1c1.7,1.6,3.1,3.4,4.2,5.6
			s1.6,4.5,1.6,7.1c0,4-0.9,7.4-2.7,10.3c-1.8,2.8-4.4,4.9-7.6,6.4c-3.2,1.4-6.9,2.2-10.9,2.2C331.2,321.1,327.6,320.5,324.1,319.2z
			"/>
	</g>
	<g id="XMLID_10_">
		<path id="XMLID_52_" class="st1" d="M17.5,83.2h41.9c23.6,0,39.3,4,47,11.9c7.8,7.9,11.6,17.5,11.6,28.7c0,7.5-1.6,14.5-4.9,21.2
			c-3.3,6.6-8.5,11.6-15.7,14.9c10.5,1.6,18.2,6,23.3,13.1c5.1,7.1,7.6,15.3,7.6,24.8c0,9.6-1.5,17.9-4.5,25.1
			c-3,7.2-9.2,13.1-18.6,17.9c-9.4,4.8-23,7.2-40.8,7.2h-47V83.2z M63.4,153.1c10.6,0,18.1-2.6,22.6-7.7s6.7-11.7,6.7-19.6
			c0-14.2-10.2-21.3-30.5-21.3H42.1v48.6H63.4z M67.9,226.8c13.6,0,22.7-2.7,27.4-8.2c4.7-5.4,7.1-12.4,7.1-20.7
			c0-7.9-2.7-14-8.1-18.4c-5.4-4.3-13.5-6.5-24.4-6.5H42.1v53.8H67.9z"/>
		<path id="XMLID_56_" class="st1" d="M160.6,83.2h25.1v164.6h-25.1V83.2z"/>
		<path id="XMLID_58_" class="st1" d="M256.7,238.9c-12.8-7.5-22.9-17.7-30.1-30.8c-7.2-13.1-10.9-27.7-10.9-44
			c0-15.8,3.7-30.1,11-42.8c7.3-12.7,17.5-22.6,30.5-29.8s27.6-10.8,43.9-10.8c8.8,0,16.8,0.8,23.9,2.4c7.1,1.6,12.9,3.4,17.4,5.4
			s7.5,3.8,9.2,5.3l-9.9,21.1c-9.3-7.5-22.9-11.2-41-11.2c-11.9,0-22.3,2.6-31.1,7.8c-8.8,5.2-15.5,12.3-20.2,21.3
			c-4.6,9-6.9,19-6.9,30c0,12.5,2.5,23.7,7.5,33.6c5,9.9,11.9,17.5,20.8,23c8.9,5.5,18.9,8.2,30.1,8.2c7,0,13.7-0.9,20.2-2.6
			c6.4-1.7,11.9-4.4,16.4-8.2v-31.8h-33.8v-23.1h58.7v64.5c-5.4,6.7-13.5,12.4-24.3,16.9c-10.8,4.6-23.3,6.8-37.5,6.8
			C284.1,250.1,269.5,246.4,256.7,238.9z"/>
	</g>
	<g id="XMLID_9_">
		<path id="XMLID_39_" d="M20,348.6c-1.9-1.2-3.3-2.7-4.3-4.6c-1-1.9-1.5-4.1-1.5-6.4c0-2.5,0.5-4.7,1.6-6.6
			c1.1-1.9,2.6-3.5,4.5-4.6s4.2-1.6,6.6-1.6c1.1,0,2.1,0.1,3.1,0.4c1,0.2,1.8,0.5,2.4,0.8c0.6,0.3,1.1,0.6,1.3,0.8l-1.7,3.4
			c-1.4-1.2-3.2-1.8-5.4-1.8c-1.6,0-3,0.4-4.3,1.2c-1.3,0.8-2.3,1.9-3,3.3c-0.7,1.4-1.1,3.1-1.1,5c0,1.7,0.3,3.3,1,4.7
			c0.6,1.4,1.6,2.5,2.8,3.3c1.2,0.8,2.7,1.2,4.5,1.2c2,0,3.9-0.6,5.8-1.7l1.1,3.2c-0.5,0.5-1.4,0.9-2.7,1.3c-1.3,0.4-2.7,0.6-4,0.6
			C24.2,350.3,21.9,349.7,20,348.6z"/>
		<path id="XMLID_41_" d="M41.7,348.8c-1.9-1.1-3.4-2.6-4.6-4.5c-1.1-1.9-1.7-4.2-1.7-6.8c0-2.6,0.6-4.9,1.7-6.8
			c1.1-1.9,2.7-3.4,4.6-4.5c1.9-1,4-1.6,6.3-1.6s4.4,0.5,6.3,1.6c1.9,1,3.4,2.5,4.6,4.5c1.1,1.9,1.7,4.2,1.7,6.8
			c0,2.6-0.6,4.9-1.7,6.8c-1.1,2-2.7,3.5-4.6,4.5c-1.9,1.1-4,1.6-6.3,1.6S43.6,349.9,41.7,348.8z M52.2,345.9
			c1.3-0.7,2.3-1.8,3.1-3.2c0.8-1.4,1.1-3.1,1.1-5.1c0-2-0.4-3.7-1.1-5.1c-0.8-1.4-1.8-2.5-3.1-3.2s-2.7-1.1-4.3-1.1s-3,0.4-4.3,1.1
			s-2.3,1.8-3.1,3.2c-0.7,1.4-1.1,3.1-1.1,5.1c0,2,0.4,3.7,1.2,5.1s1.8,2.5,3.1,3.2c1.3,0.7,2.7,1.1,4.2,1.1
			C49.5,347,50.9,346.6,52.2,345.9z"/>
		<path id="XMLID_44_" d="M71.1,338.4l-1.6-3.5l-0.7,3.5l-2.3,11.6h-3.8l5.3-25.7l7.2,14.3l2,4.4l2-4.4l7-14.3l5.5,25.7H88
			l-2.5-11.6l-0.7-3.5l-1.4,3.5l-6.2,11.9L71.1,338.4z"/>
		<path id="XMLID_46_" d="M95.6,325.1h3.8v25h-3.8V325.1z"/>
		<path id="XMLID_48_" d="M108.9,334l0.1,2.6v13.5h-3.8v-25.6l15.1,16.8l-0.1-2.7v-13.5h3.8v25.6L108.9,334z"/>
		<path id="XMLID_50_" d="M134.3,348.7c-1.9-1.1-3.5-2.7-4.6-4.7s-1.6-4.2-1.6-6.7c0-2.4,0.6-4.6,1.7-6.5c1.1-1.9,2.7-3.4,4.6-4.5
			c2-1.1,4.2-1.6,6.7-1.6c1.3,0,2.5,0.1,3.6,0.4c1.1,0.2,2,0.5,2.6,0.8c0.7,0.3,1.1,0.6,1.4,0.8l-1.5,3.2c-1.4-1.1-3.5-1.7-6.2-1.7
			c-1.8,0-3.4,0.4-4.7,1.2c-1.3,0.8-2.4,1.9-3.1,3.2c-0.7,1.4-1.1,2.9-1.1,4.6c0,1.9,0.4,3.6,1.1,5.1s1.8,2.7,3.2,3.5
			c1.3,0.8,2.9,1.2,4.6,1.2c1.1,0,2.1-0.1,3.1-0.4c1-0.3,1.8-0.7,2.5-1.2v-4.8h-5.1V337h8.9v9.8c-0.8,1-2,1.9-3.7,2.6
			c-1.6,0.7-3.5,1-5.7,1C138.5,350.4,136.3,349.8,134.3,348.7z"/>
	</g>
</g>
<g id="XMLID_38_">
</g>
<g id="XMLID_137_">
</g>
<g id="XMLID_138_">
</g>
<g id="XMLID_139_">
</g>
<g id="XMLID_140_">
</g>
<g id="XMLID_141_">
</g>
</svg>
